<?xml version="1.0" encoding="utf-8"?>
<!-- Generator: Adobe Illustrator 27.9.0, SVG Export Plug-In . SVG Version: 6.00 Build 0)  -->
<svg version="1.1" id="Calque_1" xmlns="http://www.w3.org/2000/svg" xmlns:xlink="http://www.w3.org/1999/xlink" x="0px" y="0px"
	 viewBox="0 0 425.2 170.08" style="enable-background:new 0 0 425.2 170.08;" xml:space="preserve">
<style type="text/css">
	.st0{fill:#7D9BA5;}
	.st1{fill:none;stroke:#FFFFFF;stroke-width:6;stroke-miterlimit:10;}
	.st2{fill:#A1A8AC;}
	.st3{fill:#1E1E1C;}
</style>
<path class="st0" d="M63.16,129.48c-6.15-2.65-11.49-6.25-16.04-10.8c-4.55-4.55-8.15-9.89-10.8-16.04s-3.98-12.71-3.98-19.7
	c0-6.99,1.33-13.56,3.98-19.7s6.25-11.49,10.8-16.04s9.89-8.15,16.04-10.8s12.71-3.98,19.7-3.98s13.56,1.33,19.7,3.98
	s11.49,6.25,16.04,10.8c4.55,4.55,8.15,9.89,10.8,16.04s3.98,12.71,3.98,19.7c0,6.99-1.33,13.56-3.98,19.7s-6.25,11.49-10.8,16.04
	c-4.55,4.55-9.89,8.15-16.04,10.8c-6.15,2.65-12.71,3.98-19.7,3.98S69.31,132.14,63.16,129.48z M111.53,111.61
	c7.83-7.83,11.75-17.39,11.75-28.67s-3.92-20.84-11.75-28.67S94.15,42.52,82.86,42.52s-20.84,3.92-28.67,11.75
	S42.45,71.66,42.45,82.94s3.92,20.84,11.75,28.67s17.39,11.75,28.67,11.75S103.7,119.44,111.53,111.61z"/>
<path class="st1" d="M82.88,28.49"/>
<path class="st1" d="M82.88,142.42"/>
<line class="st1" x1="82.88" y1="142.42" x2="82.88" y2="28.49"/>
<path class="st2" d="M100.74,100.81c4.93-4.93,7.39-10.88,7.39-17.87c0-6.99-2.46-12.95-7.39-17.87s-10.88-7.39-17.87-7.39v50.52
	C89.85,108.2,95.81,105.74,100.74,100.81z"/>
<g>
	<path class="st3" d="M165.11,87.12c-2.02,0-3.89-0.39-5.59-1.17c-1.71-0.78-3.19-1.84-4.45-3.18c-1.26-1.34-2.23-2.9-2.93-4.69
		c-0.7-1.79-1.05-3.7-1.05-5.72v-0.08c0-2.02,0.35-3.93,1.05-5.72c0.7-1.79,1.67-3.36,2.93-4.71c1.26-1.35,2.75-2.42,4.47-3.22
		c1.72-0.79,3.61-1.19,5.66-1.19c1.34,0,2.54,0.12,3.61,0.35c1.07,0.23,2.03,0.55,2.89,0.96c0.86,0.41,1.65,0.9,2.36,1.46
		c0.71,0.56,1.39,1.15,2.05,1.78l-0.61,0.62c-0.57-0.55-1.2-1.08-1.86-1.6c-0.67-0.52-1.41-0.98-2.23-1.39s-1.74-0.74-2.77-0.98
		s-2.18-0.37-3.46-0.37c-1.91,0-3.68,0.38-5.29,1.13c-1.61,0.75-3,1.77-4.16,3.05c-1.16,1.28-2.07,2.77-2.73,4.45
		c-0.66,1.68-0.98,3.46-0.98,5.35v0.08c0,1.89,0.33,3.68,1,5.37c0.67,1.69,1.58,3.18,2.75,4.45c1.16,1.27,2.55,2.28,4.16,3.03
		c1.61,0.75,3.36,1.13,5.25,1.13c1.17,0,2.27-0.13,3.28-0.39c1.01-0.26,1.95-0.6,2.83-1.02c0.87-0.42,1.67-0.92,2.4-1.48
		c0.72-0.56,1.37-1.15,1.95-1.78l0.66,0.61c-0.63,0.66-1.33,1.28-2.09,1.87c-0.77,0.59-1.61,1.11-2.54,1.56
		c-0.93,0.45-1.93,0.81-3.01,1.07C167.53,86.98,166.36,87.12,165.11,87.12z"/>
	<path class="st3" d="M183.51,93.3c-0.71,0-1.41-0.11-2.11-0.33c-0.7-0.22-1.28-0.48-1.74-0.78l0.41-0.7
		c0.46,0.27,1.01,0.51,1.64,0.72c0.63,0.2,1.23,0.31,1.8,0.31c0.6,0,1.14-0.08,1.62-0.22c0.48-0.15,0.94-0.44,1.39-0.88
		c0.45-0.44,0.91-1.04,1.37-1.8c0.46-0.76,0.98-1.76,1.56-2.99l-9.88-20.49h0.94l9.34,19.59l8.81-19.59h0.9l-9.51,20.9
		c-0.6,1.31-1.15,2.38-1.66,3.2c-0.51,0.82-1.01,1.45-1.52,1.91c-0.51,0.45-1.03,0.76-1.58,0.92
		C184.77,93.22,184.17,93.3,183.51,93.3z"/>
	<path class="st3" d="M204.99,66.13h0.9v6.56c0.24-0.85,0.61-1.69,1.08-2.54c0.48-0.85,1.07-1.6,1.78-2.28
		c0.71-0.67,1.53-1.21,2.46-1.62c0.93-0.41,1.97-0.62,3.12-0.62v0.82h-0.2c-1.28,0-2.43,0.31-3.44,0.94s-1.87,1.41-2.58,2.36
		c-0.71,0.94-1.26,1.97-1.64,3.1c-0.38,1.12-0.57,2.17-0.57,3.16v10.62h-0.9V66.13z"/>
	<path class="st3" d="M218.76,57.93h1.31v2.34h-1.31V57.93z M218.96,66.13h0.9v20.49h-0.9V66.13z"/>
	<path class="st3" d="M227.94,56.7h0.9v29.92h-0.9V56.7z"/>
	<path class="st3" d="M248.59,57.93h9.22c2.24,0,4.3,0.37,6.17,1.11c1.87,0.74,3.48,1.75,4.84,3.03c1.35,1.28,2.4,2.79,3.14,4.53
		s1.11,3.61,1.11,5.64v0.08c0,2.02-0.37,3.9-1.11,5.64c-0.74,1.74-1.78,3.25-3.14,4.53c-1.35,1.28-2.96,2.3-4.84,3.03
		c-1.87,0.74-3.93,1.11-6.17,1.11h-9.22V57.93z M257.86,85.8c2.1,0,4.04-0.35,5.8-1.05c1.76-0.7,3.27-1.65,4.53-2.87
		c1.26-1.22,2.23-2.64,2.93-4.26c0.7-1.63,1.04-3.38,1.04-5.27v-0.08c0-1.89-0.35-3.65-1.04-5.29c-0.7-1.64-1.68-3.07-2.95-4.3
		s-2.79-2.19-4.55-2.89c-1.76-0.7-3.71-1.05-5.84-1.05h-8.28V85.8H257.86z"/>
	<path class="st3" d="M288.7,87.12c-1.4,0-2.72-0.25-3.96-0.76c-1.25-0.51-2.33-1.22-3.27-2.15c-0.93-0.93-1.67-2.06-2.22-3.38
		c-0.55-1.33-0.82-2.81-0.82-4.45v-0.08c0-1.5,0.25-2.91,0.74-4.22c0.49-1.31,1.17-2.44,2.05-3.38c0.87-0.94,1.91-1.69,3.12-2.23
		c1.2-0.55,2.51-0.82,3.94-0.82c1.61,0,3.01,0.32,4.2,0.96c1.19,0.64,2.17,1.48,2.95,2.52c0.78,1.04,1.35,2.2,1.72,3.48
		c0.37,1.28,0.55,2.57,0.55,3.85v0.16h-18.36c0.03,1.48,0.3,2.81,0.82,4c0.52,1.19,1.2,2.21,2.04,3.05c0.84,0.85,1.82,1.5,2.94,1.95
		c1.13,0.45,2.32,0.68,3.58,0.68c1.59,0,3.05-0.4,4.39-1.21c1.33-0.81,2.41-1.78,3.23-2.93l0.7,0.49c-0.88,1.28-2.03,2.35-3.47,3.2
		C292.13,86.69,290.51,87.12,288.7,87.12z M296.79,75.84c-0.06-1.17-0.28-2.32-0.66-3.44c-0.38-1.12-0.93-2.12-1.65-2.99
		c-0.71-0.87-1.6-1.58-2.66-2.13c-1.06-0.55-2.26-0.82-3.6-0.82c-1.29,0-2.47,0.24-3.52,0.72c-1.06,0.48-1.98,1.13-2.76,1.97
		c-0.78,0.83-1.4,1.82-1.85,2.97c-0.45,1.15-0.71,2.39-0.76,3.73H296.79z"/>
	<path class="st3" d="M303.76,66.13h0.9v6.35c0.3-0.98,0.74-1.89,1.31-2.73c0.57-0.83,1.27-1.56,2.09-2.17
		c0.82-0.62,1.73-1.09,2.74-1.43c1.01-0.34,2.11-0.51,3.31-0.51c1.47,0,2.84,0.28,4.09,0.84c1.25,0.56,2.34,1.32,3.25,2.27
		c0.91,0.96,1.62,2.09,2.13,3.4c0.5,1.31,0.76,2.71,0.76,4.18v0.08c0,1.47-0.25,2.87-0.76,4.18c-0.51,1.31-1.21,2.45-2.13,3.4
		c-0.91,0.96-2,1.71-3.25,2.28c-1.25,0.56-2.62,0.84-4.09,0.84c-1.2,0-2.3-0.17-3.31-0.51c-1.01-0.34-1.92-0.82-2.74-1.44
		c-0.82-0.61-1.51-1.34-2.09-2.17c-0.57-0.83-1.01-1.74-1.31-2.73v12.91h-0.9V66.13z M314.07,86.3c1.39,0,2.66-0.25,3.82-0.76
		c1.16-0.51,2.15-1.2,2.96-2.09c0.82-0.89,1.45-1.93,1.9-3.14c0.45-1.2,0.67-2.49,0.67-3.85v-0.08c0-1.37-0.23-2.65-0.67-3.85
		c-0.45-1.2-1.08-2.26-1.9-3.16c-0.82-0.9-1.81-1.61-2.96-2.13c-1.16-0.52-2.43-0.78-3.82-0.78c-1.39,0-2.67,0.27-3.82,0.8
		c-1.16,0.53-2.16,1.25-2.99,2.15c-0.83,0.9-1.48,1.95-1.94,3.14c-0.46,1.19-0.7,2.45-0.7,3.79v0.08c0,1.31,0.23,2.57,0.7,3.77
		c0.46,1.2,1.12,2.25,1.96,3.16c0.84,0.9,1.84,1.62,2.99,2.15C311.41,86.03,312.68,86.3,314.07,86.3z"/>
	<path class="st3" d="M339.79,87.12c-1.61,0-3.07-0.29-4.37-0.86c-1.3-0.57-2.42-1.35-3.36-2.32c-0.94-0.97-1.67-2.1-2.17-3.38
		s-0.76-2.65-0.76-4.1v-0.08c0-1.42,0.25-2.78,0.76-4.08c0.51-1.3,1.22-2.44,2.15-3.42c0.93-0.98,2.05-1.77,3.36-2.36
		c1.31-0.59,2.77-0.88,4.39-0.88c1.58,0,3.03,0.29,4.35,0.86c1.31,0.57,2.44,1.35,3.38,2.32c0.94,0.97,1.67,2.1,2.17,3.4
		c0.51,1.3,0.76,2.66,0.76,4.08v0.08c0,1.45-0.25,2.82-0.76,4.12c-0.51,1.3-1.22,2.44-2.15,3.42c-0.93,0.98-2.05,1.76-3.36,2.34
		C342.86,86.83,341.4,87.12,339.79,87.12z M339.83,86.3c1.45,0,2.77-0.26,3.95-0.78c1.19-0.52,2.21-1.23,3.07-2.13
		c0.86-0.9,1.52-1.95,1.99-3.16c0.46-1.2,0.7-2.47,0.7-3.81v-0.08c0-1.34-0.24-2.61-0.72-3.81c-0.48-1.2-1.15-2.26-2.03-3.16
		c-0.87-0.9-1.91-1.61-3.12-2.13c-1.2-0.52-2.51-0.78-3.93-0.78c-1.45,0-2.77,0.26-3.96,0.78c-1.19,0.52-2.21,1.23-3.07,2.13
		c-0.86,0.9-1.52,1.95-1.99,3.16c-0.46,1.2-0.7,2.47-0.7,3.81v0.08c0,1.34,0.24,2.61,0.72,3.81c0.48,1.2,1.15,2.25,2.03,3.16
		c0.87,0.9,1.91,1.61,3.1,2.13C337.06,86.04,338.38,86.3,339.83,86.3z"/>
	<path class="st3" d="M356.59,66.13h0.9v5.62c0.16-0.63,0.46-1.3,0.88-2.01c0.42-0.71,0.97-1.37,1.66-1.99
		c0.68-0.62,1.49-1.12,2.43-1.52c0.94-0.4,2.02-0.6,3.25-0.6c1.39,0,2.62,0.23,3.68,0.68c1.06,0.45,1.96,1.09,2.68,1.91
		c0.72,0.82,1.27,1.8,1.66,2.95c0.38,1.15,0.57,2.43,0.57,3.85v11.6h-0.9V75.11c0-1.28-0.16-2.46-0.49-3.53
		c-0.33-1.07-0.82-1.97-1.47-2.73c-0.65-0.75-1.47-1.34-2.45-1.76c-0.98-0.42-2.11-0.64-3.38-0.64c-1.14,0-2.2,0.23-3.18,0.68
		c-0.98,0.45-1.84,1.08-2.57,1.89c-0.73,0.81-1.31,1.74-1.73,2.81s-0.63,2.21-0.63,3.44v11.35h-0.9V66.13z"/>
	<path class="st3" d="M387.9,86.99c-1.72,0-3.03-0.48-3.93-1.45c-0.9-0.97-1.35-2.36-1.35-4.16V66.91h-3.24v-0.78h3.24v-7.09h0.9
		v7.09h7.58v0.78h-7.58V81.3c0,1.56,0.36,2.76,1.09,3.61c0.72,0.85,1.82,1.27,3.3,1.27c1.09,0,2.13-0.25,3.12-0.74v0.9
		C390.06,86.77,389.02,86.99,387.9,86.99z"/>
	<path class="st2" d="M149.8,96.74h5.53c1.11,0,2.12,0.18,3.05,0.54c0.92,0.36,1.72,0.85,2.39,1.49c0.67,0.63,1.18,1.38,1.55,2.24
		c0.36,0.86,0.55,1.78,0.55,2.78v0.04c0,1-0.18,1.93-0.55,2.79c-0.36,0.86-0.88,1.61-1.55,2.25c-0.67,0.63-1.46,1.13-2.39,1.5
		c-0.92,0.36-1.94,0.55-3.05,0.55h-5.53V96.74z M155.32,108.1c0.63,0,1.21-0.1,1.74-0.3c0.53-0.2,0.97-0.49,1.35-0.87
		c0.37-0.38,0.66-0.82,0.87-1.34c0.21-0.51,0.31-1.09,0.31-1.72v-0.04c0-0.62-0.1-1.19-0.31-1.72c-0.21-0.53-0.5-0.98-0.87-1.36
		c-0.37-0.38-0.82-0.67-1.35-0.88c-0.53-0.21-1.11-0.31-1.74-0.31h-2.41v8.54H155.32z"/>
	<path class="st2" d="M167.73,96.74h10.67v2.77h-7.59v2.88h6.68v2.77h-6.68v2.97h7.69v2.77h-10.77V96.74z"/>
	<path class="st2" d="M182.18,96.74h3.44l3.7,9.98l3.7-9.98h3.36l-5.73,14.27h-2.75L182.18,96.74z"/>
	<path class="st2" d="M200.68,96.74h10.67v2.77h-7.59v2.88h6.68v2.77h-6.68v2.97h7.69v2.77h-10.77V96.74z"/>
	<path class="st2" d="M216.35,96.74h3.12v11.36h7.06v2.81h-10.18V96.74z"/>
	<path class="st2" d="M237.86,111.15c-1.09,0-2.1-0.19-3.02-0.58c-0.92-0.39-1.71-0.9-2.38-1.56c-0.67-0.65-1.19-1.42-1.56-2.31
		c-0.37-0.88-0.56-1.83-0.56-2.84v-0.04c0-1.01,0.19-1.96,0.57-2.84c0.38-0.88,0.9-1.66,1.57-2.33c0.67-0.67,1.46-1.19,2.39-1.58
		c0.92-0.39,1.93-0.58,3.03-0.58c1.09,0,2.1,0.19,3.02,0.58c0.92,0.38,1.71,0.9,2.38,1.56c0.67,0.65,1.19,1.42,1.56,2.31
		c0.37,0.88,0.56,1.83,0.56,2.84v0.04c0,1.01-0.19,1.96-0.57,2.84c-0.38,0.88-0.9,1.66-1.57,2.33c-0.67,0.67-1.46,1.19-2.39,1.58
		C239.96,110.96,238.96,111.15,237.86,111.15z M237.9,108.28c0.62,0,1.19-0.11,1.72-0.34c0.53-0.23,0.97-0.55,1.35-0.95
		c0.37-0.41,0.66-0.87,0.87-1.41c0.21-0.53,0.31-1.1,0.31-1.71v-0.04c0-0.61-0.1-1.18-0.31-1.72c-0.21-0.54-0.51-1.01-0.89-1.42
		c-0.39-0.41-0.84-0.73-1.37-0.96c-0.53-0.24-1.1-0.35-1.72-0.35c-0.63,0-1.21,0.11-1.73,0.34c-0.52,0.23-0.97,0.55-1.34,0.95
		c-0.37,0.4-0.66,0.87-0.87,1.41c-0.21,0.53-0.31,1.1-0.31,1.71v0.04c0,0.61,0.1,1.18,0.31,1.72c0.21,0.54,0.51,1.01,0.89,1.42
		c0.39,0.4,0.84,0.73,1.36,0.96C236.69,108.16,237.27,108.28,237.9,108.28z"/>
	<path class="st2" d="M250.29,96.74h5.79c0.85,0,1.61,0.12,2.28,0.35s1.23,0.57,1.7,1c0.46,0.43,0.82,0.95,1.07,1.55
		c0.25,0.6,0.37,1.26,0.37,1.99v0.04c0,0.82-0.15,1.55-0.44,2.17c-0.3,0.62-0.71,1.14-1.23,1.56c-0.52,0.42-1.13,0.73-1.82,0.94
		c-0.7,0.21-1.44,0.31-2.24,0.31h-2.37v4.25h-3.12V96.74z M255.88,103.89c0.78,0,1.39-0.21,1.82-0.62c0.43-0.41,0.65-0.92,0.65-1.53
		v-0.04c0-0.7-0.23-1.24-0.68-1.6c-0.45-0.36-1.07-0.55-1.85-0.55h-2.41v4.33H255.88z"/>
	<path class="st2" d="M265.91,96.74h5.79c0.85,0,1.61,0.12,2.28,0.35s1.23,0.57,1.7,1c0.46,0.43,0.82,0.95,1.07,1.55
		c0.25,0.6,0.37,1.26,0.37,1.99v0.04c0,0.82-0.15,1.55-0.44,2.17c-0.3,0.62-0.71,1.14-1.23,1.56c-0.52,0.42-1.13,0.73-1.82,0.94
		s-1.44,0.31-2.24,0.31h-2.37v4.25h-3.12V96.74z M271.5,103.89c0.78,0,1.39-0.21,1.82-0.62c0.43-0.41,0.65-0.92,0.65-1.53v-0.04
		c0-0.7-0.23-1.24-0.68-1.6c-0.45-0.36-1.07-0.55-1.85-0.55h-2.41v4.33H271.5z"/>
	<path class="st2" d="M281.54,96.74h10.67v2.77h-7.59v2.88h6.68v2.77h-6.68v2.97h7.69v2.77h-10.77V96.74z"/>
	<path class="st2" d="M303.12,111.13c-1.9,0-3.4-0.53-4.49-1.58c-1.09-1.05-1.64-2.62-1.64-4.72v-8.1h3.12v8.02
		c0,1.16,0.27,2.03,0.81,2.62c0.54,0.59,1.29,0.88,2.25,0.88c0.96,0,1.71-0.28,2.25-0.85c0.54-0.57,0.81-1.42,0.81-2.55v-8.12h3.12
		v7.99c0,1.08-0.14,2.02-0.43,2.81c-0.29,0.8-0.71,1.46-1.25,1.99c-0.54,0.53-1.19,0.93-1.96,1.19S304.06,111.13,303.12,111.13z"/>
	<path class="st2" d="M314.61,96.74h6.48c1.79,0,3.17,0.48,4.13,1.44c0.81,0.81,1.21,1.89,1.21,3.24v0.04c0,1.15-0.28,2.08-0.84,2.8
		c-0.56,0.72-1.29,1.25-2.2,1.59l3.46,5.06h-3.64l-3.04-4.53h-0.04h-2.41v4.53h-3.12V96.74z M320.89,103.62
		c0.77,0,1.36-0.18,1.77-0.55c0.41-0.36,0.62-0.85,0.62-1.46v-0.04c0-0.67-0.22-1.18-0.65-1.52c-0.43-0.34-1.03-0.51-1.8-0.51h-3.1
		v4.07H320.89z"/>
	<path class="st2" d="M338.43,96.74h3.34l2.94,9.59l3.18-9.63h2.67l3.18,9.63l2.93-9.59h3.26l-4.84,14.27h-2.71l-3.2-9.27l-3.2,9.27
		h-2.71L338.43,96.74z"/>
	<path class="st2" d="M364.34,96.74h10.67v2.77h-7.59v2.88h6.68v2.77h-6.68v2.97h7.69v2.77h-10.77V96.74z"/>
	<path class="st2" d="M380.01,96.74h6.57c1.63,0,2.86,0.42,3.7,1.26c0.65,0.65,0.97,1.45,0.97,2.41v0.04c0,0.41-0.05,0.76-0.15,1.07
		c-0.1,0.31-0.23,0.59-0.4,0.84c-0.17,0.25-0.36,0.47-0.58,0.66c-0.22,0.19-0.46,0.35-0.71,0.49c0.82,0.31,1.46,0.73,1.93,1.26
		c0.47,0.53,0.71,1.27,0.71,2.22v0.04c0,0.65-0.12,1.21-0.37,1.7c-0.25,0.49-0.61,0.89-1.07,1.21c-0.46,0.32-1.02,0.57-1.68,0.73
		c-0.65,0.16-1.38,0.24-2.17,0.24h-6.73V96.74z M385.92,102.47c0.69,0,1.24-0.12,1.64-0.35c0.41-0.24,0.61-0.62,0.61-1.14v-0.04
		c0-0.47-0.18-0.83-0.53-1.08c-0.35-0.25-0.86-0.38-1.52-0.38h-3.08v3H385.92z M386.75,108.18c0.69,0,1.23-0.12,1.62-0.37
		c0.39-0.25,0.59-0.64,0.59-1.16v-0.04c0-0.47-0.18-0.85-0.55-1.12c-0.36-0.28-0.95-0.41-1.76-0.41h-3.6v3.12H386.75z"/>
</g>
</svg>
