<?xml version="1.0" encoding="utf-8"?>
<!-- Generator: Adobe Illustrator 27.9.0, SVG Export Plug-In . SVG Version: 6.00 Build 0)  -->
<svg version="1.1" id="Calque_1" xmlns="http://www.w3.org/2000/svg" xmlns:xlink="http://www.w3.org/1999/xlink" x="0px" y="0px"
	 viewBox="0 0 311.81 283.46" style="enable-background:new 0 0 311.81 283.46;" xml:space="preserve">
<style type="text/css">
	.st0{fill:#7D9BA5;}
	.st1{fill:#FFFFFF;}
	.st2{fill:none;stroke:#1E1E1C;stroke-width:5.0733;stroke-miterlimit:10;}
	.st3{fill:#1E1E1C;}
</style>
<g>
	<g>
		<circle class="st0" cx="152.85" cy="108.67" r="64.59"/>
	</g>
	<g>
		<path class="st1" d="M195.87,132.4c-1.84-1.21-4.31-0.7-5.52,1.14c-8.37,12.73-22.44,20.33-37.66,20.33
			c-24.83,0-45.03-20.2-45.03-45.03s20.2-45.02,45.03-45.02c7.03,0,13.97,1.65,20.2,4.78v20.64c-5.12-5.28-12.28-8.57-20.2-8.57
			c-15.53,0-28.17,12.64-28.17,28.17c0,15.53,12.64,28.17,28.17,28.17c15.53,0,28.17-12.64,28.17-28.17V66.78
			c0.06-1.45-0.51-3.17-1.97-4c-7.95-4.53-17-6.92-26.2-6.92c-29.22,0-52.99,23.77-52.99,52.99c0,29.22,23.77,52.99,52.99,52.99
			c17.9,0,34.47-8.94,44.31-23.92C198.22,136.08,197.7,133.61,195.87,132.4z M152.69,129.05c-11.14,0-20.2-9.06-20.2-20.2
			s9.06-20.2,20.2-20.2c11.14,0,20.2,9.06,20.2,20.2S163.83,129.05,152.69,129.05z"/>
	</g>
	<path class="st2" d="M183.42,82.08"/>
</g>
<g>
	<path class="st3" d="M58.86,215.34c-1.84,0-3.53-0.35-5.09-1.06c-1.55-0.71-2.9-1.67-4.04-2.89c-1.14-1.22-2.03-2.64-2.66-4.27
		c-0.63-1.63-0.95-3.36-0.95-5.2v-0.07c0-1.84,0.32-3.57,0.95-5.2c0.63-1.63,1.52-3.06,2.66-4.28c1.14-1.23,2.5-2.2,4.06-2.92
		c1.56-0.72,3.28-1.08,5.14-1.08c1.22,0,2.31,0.11,3.28,0.32c0.97,0.21,1.84,0.5,2.63,0.88c0.78,0.37,1.5,0.81,2.14,1.32
		c0.65,0.51,1.27,1.05,1.86,1.62l-0.56,0.56c-0.52-0.5-1.09-0.98-1.7-1.45c-0.61-0.47-1.29-0.89-2.03-1.27
		c-0.75-0.37-1.58-0.67-2.52-0.89c-0.93-0.22-1.98-0.34-3.15-0.34c-1.74,0-3.34,0.34-4.81,1.02c-1.47,0.68-2.73,1.61-3.78,2.78
		c-1.06,1.17-1.88,2.52-2.48,4.04c-0.6,1.53-0.89,3.15-0.89,4.86v0.07c0,1.71,0.3,3.34,0.91,4.88c0.61,1.54,1.44,2.89,2.5,4.04
		c1.06,1.16,2.32,2.07,3.78,2.76c1.47,0.68,3.06,1.03,4.77,1.03c1.07,0,2.06-0.12,2.98-0.35c0.92-0.24,1.78-0.55,2.57-0.93
		c0.79-0.39,1.52-0.83,2.18-1.34c0.66-0.51,1.25-1.05,1.77-1.62l0.6,0.56c-0.57,0.6-1.21,1.16-1.9,1.7
		c-0.7,0.53-1.47,1.01-2.31,1.42c-0.85,0.41-1.76,0.73-2.74,0.97C61.07,215.23,60,215.34,58.86,215.34z"/>
	<path class="st3" d="M75.59,220.97c-0.65,0-1.29-0.1-1.92-0.3c-0.63-0.2-1.16-0.44-1.58-0.71l0.37-0.63
		c0.42,0.25,0.92,0.47,1.49,0.65c0.57,0.19,1.12,0.28,1.64,0.28c0.55,0,1.04-0.07,1.47-0.21c0.43-0.14,0.86-0.4,1.27-0.8
		c0.41-0.4,0.83-0.94,1.25-1.64c0.42-0.7,0.89-1.6,1.42-2.72l-8.98-18.63h0.86l8.5,17.81l8.01-17.81h0.82l-8.64,19
		c-0.55,1.19-1.05,2.16-1.51,2.91c-0.46,0.74-0.92,1.32-1.38,1.73c-0.46,0.41-0.94,0.69-1.43,0.84
		C76.73,220.9,76.19,220.97,75.59,220.97z"/>
	<path class="st3" d="M95.11,196.27h0.82v5.96c0.22-0.77,0.55-1.54,0.99-2.31c0.43-0.77,0.97-1.46,1.62-2.07
		c0.65-0.61,1.39-1.1,2.24-1.47c0.84-0.37,1.79-0.56,2.83-0.56v0.75h-0.19c-1.17,0-2.21,0.29-3.13,0.86
		c-0.92,0.57-1.7,1.29-2.35,2.14c-0.65,0.86-1.14,1.79-1.49,2.81c-0.35,1.02-0.52,1.97-0.52,2.87v9.65h-0.82V196.27z"/>
	<path class="st3" d="M107.63,188.81h1.19v2.12h-1.19V188.81z M107.82,196.27h0.82v18.63h-0.82V196.27z"/>
	<path class="st3" d="M115.98,187.7h0.82v27.2h-0.82V187.7z"/>
	<path class="st3" d="M134.76,188.81h8.38c2.04,0,3.91,0.34,5.61,1.01s3.17,1.59,4.4,2.76c1.23,1.17,2.18,2.54,2.85,4.12
		c0.67,1.58,1.01,3.29,1.01,5.12v0.07c0,1.84-0.34,3.55-1.01,5.12c-0.67,1.58-1.62,2.95-2.85,4.12c-1.23,1.17-2.7,2.09-4.4,2.76
		s-3.57,1.01-5.61,1.01h-8.38V188.81z M143.18,214.15c1.91,0,3.67-0.32,5.27-0.95c1.6-0.63,2.97-1.5,4.12-2.61
		c1.14-1.11,2.03-2.4,2.66-3.87c0.63-1.48,0.95-3.07,0.95-4.79v-0.07c0-1.71-0.32-3.32-0.95-4.81c-0.63-1.49-1.53-2.79-2.68-3.91
		c-1.16-1.12-2.53-1.99-4.14-2.63c-1.6-0.63-3.37-0.95-5.31-0.95h-7.53v24.59H143.18z"/>
	<path class="st3" d="M171.22,215.34c-1.27,0-2.47-0.23-3.6-0.69c-1.13-0.46-2.12-1.11-2.97-1.96c-0.85-0.84-1.52-1.87-2.02-3.07
		c-0.5-1.2-0.75-2.55-0.75-4.04v-0.07c0-1.37,0.22-2.65,0.67-3.84c0.45-1.19,1.07-2.22,1.86-3.07c0.79-0.86,1.74-1.53,2.83-2.03
		c1.09-0.5,2.29-0.75,3.58-0.75c1.47,0,2.74,0.29,3.82,0.88c1.08,0.58,1.97,1.35,2.68,2.29c0.71,0.94,1.23,2,1.56,3.17
		c0.34,1.17,0.5,2.33,0.5,3.5v0.15H162.7c0.02,1.34,0.28,2.55,0.75,3.63c0.47,1.08,1.09,2.01,1.85,2.78
		c0.76,0.77,1.65,1.36,2.68,1.77c1.02,0.41,2.11,0.62,3.26,0.62c1.45,0,2.78-0.37,3.99-1.1c1.21-0.73,2.19-1.62,2.94-2.66l0.64,0.45
		c-0.8,1.17-1.85,2.14-3.16,2.91C174.34,214.96,172.86,215.34,171.22,215.34z M178.58,205.1c-0.05-1.07-0.25-2.11-0.6-3.13
		c-0.35-1.02-0.85-1.92-1.5-2.72c-0.65-0.79-1.45-1.44-2.41-1.94c-0.96-0.5-2.05-0.75-3.27-0.75c-1.17,0-2.24,0.22-3.2,0.65
		c-0.96,0.44-1.8,1.03-2.51,1.79c-0.71,0.76-1.27,1.66-1.68,2.7c-0.41,1.04-0.64,2.17-0.69,3.39H178.58z"/>
	<path class="st3" d="M184.91,196.27h0.82v5.78c0.27-0.89,0.67-1.72,1.19-2.48c0.52-0.76,1.15-1.42,1.9-1.97
		c0.74-0.56,1.57-0.99,2.49-1.3c0.92-0.31,1.92-0.47,3.01-0.47c1.34,0,2.58,0.25,3.72,0.76c1.14,0.51,2.13,1.2,2.96,2.07
		c0.83,0.87,1.47,1.9,1.93,3.09c0.46,1.19,0.69,2.46,0.69,3.8v0.07c0,1.34-0.23,2.61-0.69,3.8c-0.46,1.19-1.1,2.22-1.93,3.09
		c-0.83,0.87-1.82,1.56-2.96,2.07c-1.14,0.51-2.38,0.76-3.72,0.76c-1.09,0-2.09-0.15-3.01-0.47c-0.92-0.31-1.75-0.74-2.49-1.3
		c-0.74-0.56-1.38-1.22-1.9-1.97c-0.52-0.76-0.92-1.58-1.19-2.48v11.74h-0.82V196.27z M194.28,214.6c1.26,0,2.42-0.23,3.48-0.69
		c1.05-0.46,1.95-1.09,2.7-1.9c0.74-0.81,1.32-1.76,1.73-2.85c0.41-1.09,0.61-2.26,0.61-3.5v-0.08c0-1.24-0.21-2.41-0.61-3.5
		c-0.41-1.09-0.98-2.05-1.73-2.87c-0.74-0.82-1.64-1.47-2.7-1.94c-1.05-0.47-2.21-0.71-3.48-0.71c-1.26,0-2.42,0.24-3.48,0.73
		c-1.05,0.48-1.96,1.14-2.71,1.96s-1.34,1.77-1.77,2.85c-0.42,1.08-0.63,2.23-0.63,3.45v0.07c0,1.19,0.21,2.33,0.63,3.43
		c0.42,1.09,1.02,2.05,1.79,2.87c0.77,0.82,1.67,1.47,2.71,1.96C191.86,214.36,193.02,214.6,194.28,214.6z"/>
	<path class="st3" d="M217.66,215.34c-1.47,0-2.79-0.26-3.97-0.78c-1.18-0.52-2.2-1.22-3.05-2.1c-0.86-0.88-1.52-1.91-1.98-3.07
		c-0.46-1.17-0.69-2.41-0.69-3.73v-0.08c0-1.29,0.23-2.53,0.69-3.71c0.46-1.18,1.11-2.22,1.96-3.11c0.84-0.89,1.86-1.61,3.06-2.14
		c1.19-0.53,2.52-0.8,3.99-0.8c1.44,0,2.76,0.26,3.95,0.78c1.19,0.52,2.22,1.22,3.07,2.11c0.86,0.88,1.52,1.91,1.98,3.09
		c0.46,1.18,0.69,2.42,0.69,3.71v0.07c0,1.32-0.23,2.57-0.69,3.75c-0.46,1.18-1.11,2.22-1.96,3.11c-0.84,0.9-1.86,1.6-3.06,2.12
		C220.46,215.08,219.13,215.34,217.66,215.34z M217.7,214.6c1.32,0,2.52-0.24,3.6-0.71c1.08-0.47,2.01-1.12,2.79-1.94
		s1.38-1.78,1.81-2.87c0.42-1.09,0.63-2.25,0.63-3.46v-0.07c0-1.22-0.22-2.37-0.65-3.47c-0.43-1.09-1.05-2.05-1.84-2.87
		c-0.8-0.82-1.74-1.47-2.83-1.94c-1.09-0.47-2.28-0.71-3.58-0.71c-1.32,0-2.52,0.24-3.6,0.71c-1.08,0.47-2.01,1.12-2.8,1.94
		c-0.78,0.82-1.38,1.78-1.81,2.87c-0.42,1.09-0.63,2.25-0.63,3.47v0.07c0,1.22,0.22,2.37,0.65,3.46c0.43,1.09,1.05,2.05,1.84,2.87
		s1.73,1.47,2.81,1.94C215.18,214.36,216.38,214.6,217.7,214.6z"/>
	<path class="st3" d="M232.94,196.27h0.82v5.1c0.15-0.57,0.42-1.18,0.8-1.83c0.38-0.65,0.89-1.25,1.5-1.81
		c0.62-0.56,1.36-1.02,2.21-1.38c0.85-0.36,1.84-0.54,2.95-0.54c1.26,0,2.38,0.2,3.35,0.61c0.97,0.41,1.78,0.99,2.43,1.73
		c0.66,0.75,1.16,1.64,1.51,2.68c0.35,1.04,0.52,2.21,0.52,3.5v10.54h-0.82v-10.47c0-1.17-0.15-2.24-0.44-3.2
		c-0.3-0.97-0.74-1.79-1.33-2.48c-0.59-0.68-1.34-1.22-2.22-1.6s-1.91-0.58-3.08-0.58c-1.04,0-2,0.2-2.89,0.61s-1.67,0.98-2.33,1.71
		c-0.67,0.73-1.19,1.58-1.58,2.55c-0.38,0.97-0.58,2.01-0.58,3.13v10.32h-0.82V196.27z"/>
	<path class="st3" d="M261.4,215.23c-1.56,0-2.76-0.44-3.58-1.32s-1.23-2.14-1.23-3.78v-13.15h-2.94v-0.71h2.94v-6.45h0.82v6.45
		h6.89v0.71h-6.89v13.08c0,1.42,0.33,2.51,0.99,3.28c0.66,0.77,1.66,1.15,3,1.15c0.99,0,1.94-0.22,2.83-0.67v0.82
		C263.37,215.03,262.42,215.23,261.4,215.23z"/>
	<path class="st0" d="M45.06,230.24h5.31c3.1,0,3.35,1.77,3.35,3.54v14.59c0,2.89-0.74,3.79-3.1,3.79h-5.56V230.24z M47.95,232.91
		v16.54h1.92c0.84,0,0.93-0.5,0.93-1.21v-13.81c0-0.84-0.03-1.52-1.18-1.52H47.95z"/>
	<path class="st0" d="M60.93,230.24h7.23V233h-4.28v6.39h3.85v2.7h-3.85v7.3h4.31v2.76h-7.26V230.24z"/>
	<path class="st0" d="M81.26,230.21h2.86l-3.35,21.95h-3.38L74,230.21h2.89l1.65,12.63c0.31,2.48,0.37,2.76,0.43,4.87h0.31
		c0.03-2.02,0.03-2.11,0.43-5.09L81.26,230.21z"/>
	<path class="st0" d="M90.58,230.24h7.23V233h-4.28v6.39h3.85v2.7h-3.85v7.3h4.31v2.76h-7.26V230.24z"/>
	<path class="st0" d="M107.69,230.21v19.28h4.78v2.67h-7.7v-21.95H107.69z"/>
	<path class="st0" d="M118.21,236.17c0-1.99,0.09-3.41,1.09-4.56c0.9-1.02,2.23-1.52,3.6-1.52c1.21,0,2.39,0.28,3.29,1.24
		c1.21,1.27,1.21,2.79,1.21,5.5v10.4c0,1.61-0.06,5.15-4.78,5.15c-0.59,0-2.83,0-3.88-2.14c-0.53-0.99-0.53-2.05-0.53-3.1V236.17z
		 M124.54,235.95c0-1.89,0-3.35-1.68-3.35c-0.22,0-1.24,0-1.61,1.06c-0.16,0.43-0.16,0.9-0.16,2.27v11.77c0,1.09,0.09,2.3,1.68,2.3
		c1.71,0,1.77-1.43,1.77-2.98V235.95z"/>
	<path class="st0" d="M134.7,230.24h5.62c2.79,0,3.01,1.4,3.01,3.76v4.16c0,3.07-0.25,4.07-2.92,4.07h-2.89v9.93h-2.82V230.24z
		 M137.55,232.91v6.7h1.83c0.68,0,1.02-0.15,1.02-0.99v-4.59c0-0.78-0.12-1.12-1.09-1.12H137.55z"/>
	<path class="st0" d="M150.16,230.24h5.62c2.79,0,3.01,1.4,3.01,3.76v4.16c0,3.07-0.25,4.07-2.92,4.07h-2.89v9.93h-2.82V230.24z
		 M153.02,232.91v6.7h1.83c0.68,0,1.02-0.15,1.02-0.99v-4.59c0-0.78-0.12-1.12-1.09-1.12H153.02z"/>
	<path class="st0" d="M165.65,230.24h7.23V233h-4.28v6.39h3.85v2.7h-3.85v7.3h4.31v2.76h-7.26V230.24z"/>
	<path class="st0" d="M179.78,230.24h2.82v16.95c0,1.46,0,2.92,1.77,2.92c1.74,0,1.74-1.46,1.74-3.1v-16.76h2.86v16.61
		c0,1.52,0,5.65-4.69,5.65c-4.5,0-4.5-3.94-4.5-5.12V230.24z"/>
	<path class="st0" d="M196.58,230.24h4.72c3.54,0,3.94,0.96,3.94,5.31c0,3.85-0.09,5.43-2.45,5.4v0.12
		c2.08,0.25,2.36,1.43,2.36,4.35v2.39c0,2.64,0.06,3.04,0.56,4.35h-3.01c-0.25-1.27-0.46-2.36-0.46-4.59v-1.55
		c0-0.84-0.03-2.58-0.37-3.29c-0.34-0.65-0.68-0.65-2.39-0.65v10.09h-2.89V230.24z M199.5,232.88v6.77h1.37
		c1.46,0,1.52-0.65,1.52-4.28c0-2.42-0.15-2.48-1.4-2.48H199.5z"/>
	<path class="st0" d="M228.99,230.24l1.46,13.44c0.22,1.92,0.22,2.7,0.25,4.1h0.22c0-2.33,0.06-3.1,0.22-4.94l1.05-12.6h2.89
		l-2.55,21.92h-3.35l-1.21-11.92c-0.12-1.24-0.12-2.45-0.12-3.82h-0.28c0,1.18,0,2.79-0.06,3.48l-1.18,12.26h-3.29l-2.45-21.92h2.82
		l1.12,13.75c0.15,1.64,0.15,2.45,0.19,3.82h0.19c0-1.99,0.03-2.95,0.15-4.13l1.34-13.44H228.99z"/>
	<path class="st0" d="M241.7,230.24h7.23V233h-4.28v6.39h3.85v2.7h-3.85v7.3h4.31v2.76h-7.26V230.24z"/>
	<path class="st0" d="M255.88,230.24h5.12c3.35,0,3.41,1.27,3.41,5.46c0,3.35,0,4.69-2.2,4.78v0.15c0.71,0.06,1.83,0.16,2.11,1.61
		c0.06,0.37,0.09,0.53,0.09,4.44c0,4.41-0.25,5.46-4.1,5.46h-4.44V230.24z M258.68,239.43c2.11,0,2.42,0,2.67-0.59
		c0.22-0.46,0.22-2.27,0.22-2.98c0-0.4-0.03-0.99-0.06-1.55c-0.06-0.9-0.12-1.18-0.37-1.34c-0.22-0.12-0.31-0.12-2.45-0.12V239.43z
		 M258.68,241.82v7.64h1.49c0.84,0,1.12-0.06,1.27-0.43c0.19-0.37,0.19-2.82,0.19-3.41c0-3.38-0.12-3.79-1.33-3.79H258.68z"/>
</g>
</svg>
